<svg width="32" height="32" viewBox="0 0 32 32" xmlns="http://www.w3.org/2000/svg">
  <defs>
    <linearGradient id="neuralGrad" x1="0%" y1="0%" x2="100%" y2="100%">
      <stop offset="0%" style="stop-color:#ff6b35"/>
      <stop offset="100%" style="stop-color:#f7931e"/>
    </linearGradient>
  </defs>
  <rect width="32" height="32" rx="6" fill="#1a1a2e"/>
  <g transform="translate(16, 16)">
    <circle cx="0" cy="0" r="4" fill="url(#neuralGrad)"/>
    <line x1="0" y1="0" x2="0" y2="-10" stroke="url(#neuralGrad)" stroke-width="1.5"/>
    <line x1="0" y1="0" x2="10" y2="0" stroke="url(#neuralGrad)" stroke-width="1.5"/>
    <line x1="0" y1="0" x2="0" y2="10" stroke="url(#neuralGrad)" stroke-width="1.5"/>
    <line x1="0" y1="0" x2="-10" y2="0" stroke="url(#neuralGrad)" stroke-width="1.5"/>
    <line x1="0" y1="0" x2="7" y2="-7" stroke="url(#neuralGrad)" stroke-width="1.5"/>
    <line x1="0" y1="0" x2="-7" y2="7" stroke="url(#neuralGrad)" stroke-width="1.5"/>
    <line x1="0" y1="0" x2="7" y2="7" stroke="url(#neuralGrad)" stroke-width="1.5"/>
    <line x1="0" y1="0" x2="-7" y2="-7" stroke="url(#neuralGrad)" stroke-width="1.5"/>
    <circle cx="0" cy="-10" r="2" fill="url(#neuralGrad)"/>
    <circle cx="10" cy="0" r="2" fill="url(#neuralGrad)"/>
    <circle cx="0" cy="10" r="2" fill="url(#neuralGrad)"/>
    <circle cx="-10" cy="0" r="2" fill="url(#neuralGrad)"/>
    <circle cx="7" cy="-7" r="1.5" fill="url(#neuralGrad)" opacity="0.7"/>
    <circle cx="-7" cy="7" r="1.5" fill="url(#neuralGrad)" opacity="0.7"/>
    <circle cx="7" cy="7" r="1.5" fill="url(#neuralGrad)" opacity="0.7"/>
    <circle cx="-7" cy="-7" r="1.5" fill="url(#neuralGrad)" opacity="0.7"/>
  </g>
</svg>
